{"asset":{"version":"2.0","generator":"babylon.js glTF exporter for Maya 2018 v20210225.1"},"scene":0,"scenes":[{"nodes":[0,1]}],"nodes":[{"skin":0,"mesh":0,"name":"jixiebi"},{"children":[2],"translation":[-16.490881,-0.01090894,3.1809094],"rotation":[0,0,0.707106769,0.707106769],"scale":[0.99999994,0.99999994,1],"name":"joint1"},{"children":[3],"translation":[15.5947113,3.46272151e-15,0],"rotation":[0,0,-0.630633533,0.7760807],"name":"joint2"},{"children":[4],"translation":[9.709965,-5.071317e-15,-7.10639334],"rotation":[-0.7760391,-0.6306848,-3.86183066e-17,-4.751869e-17],"name":"joint3"},{"children":[5],"translation":[28.5357285,-5.87307955e-15,-7.1921926e-31],"rotation":[-0.9884927,-0.151268482,-9.26252448e-18,-6.05277237e-17],"scale":[1,1.00000012,1],"name":"joint4"},{"children":[6],"translation":[6.52141142,-8.345992e-15,5.83522272],"rotation":[0,0,-0.5954955,0.8033586],"scale":[0.99999994,0.99999994,1],"name":"joint5"},{"children":[7],"translation":[25.242094,6.39488445e-15,-6.04884947e-15],"rotation":[0,0,0.02647404,0.9996495],"name":"joint6"},{"translation":[6.47067833,1.80833115e-14,-1.53658521e-15],"rotation":[0,0,-0.0222057849,0.9997534],"scale":[0.99999994,0.99999994,1],"name":"joint7"}],"meshes":[{"primitives":[{"attributes":{"POSITION":1,"TANGENT":2,"NORMAL":3,"TEXCOORD_0":4,"JOINTS_0":5,"WEIGHTS_0":6},"indices":0,"material":0}],"name":"jixiebi"}],"accessors":[{"bufferView":0,"componentType":5123,"count":67077,"type":"SCALAR","name":"accessorIndices"},{"bufferView":1,"componentType":5126,"count":24244,"max":[29.5211449,60.6737633,12.6192341],"min":[-29.5211449,-0.00306152343,-12.6192341],"type":"VEC3","name":"accessorPositions"},{"bufferView":2,"componentType":5126,"count":24244,"type":"VEC4","name":"accessorTangents"},{"bufferView":1,"byteOffset":290928,"componentType":5126,"count":24244,"type":"VEC3","name":"accessorNormals"},{"bufferView":3,"componentType":5126,"count":24244,"type":"VEC2","name":"accessorUVs"},{"bufferView":4,"componentType":5123,"count":24244,"type":"VEC4","name":"accessorJoints"},{"bufferView":2,"byteOffset":387904,"componentType":5126,"count":24244,"type":"VEC4","name":"accessorWeights"},{"bufferView":5,"componentType":5126,"count":7,"type":"MAT4","name":"accessorInverseBindMatrices"},{"bufferView":6,"componentType":5126,"count":124,"max":[17.333334],"min":[0],"type":"SCALAR","name":"accessorAnimationInput"},{"bufferView":7,"componentType":5126,"count":124,"type":"VEC3","name":"accessorAnimationPositions"},{"bufferView":8,"componentType":5126,"count":124,"type":"VEC4","name":"accessorAnimationRotations"},{"bufferView":7,"byteOffset":1488,"componentType":5126,"count":124,"type":"VEC3","name":"accessorAnimationScales"},{"bufferView":6,"byteOffset":496,"componentType":5126,"count":364,"max":[17.333334],"min":[0],"type":"SCALAR","name":"accessorAnimationInput"},{"bufferView":7,"byteOffset":2976,"componentType":5126,"count":364,"type":"VEC3","name":"accessorAnimationPositions"},{"bufferView":8,"byteOffset":1984,"componentType":5126,"count":364,"type":"VEC4","name":"accessorAnimationRotations"},{"bufferView":7,"byteOffset":7344,"componentType":5126,"count":364,"type":"VEC3","name":"accessorAnimationScales"},{"bufferView":6,"byteOffset":1952,"componentType":5126,"count":364,"max":[17.333334],"min":[0],"type":"SCALAR","name":"accessorAnimationInput"},{"bufferView":7,"byteOffset":11712,"componentType":5126,"count":364,"type":"VEC3","name":"accessorAnimationPositions"},{"bufferView":8,"byteOffset":7808,"componentType":5126,"count":364,"type":"VEC4","name":"accessorAnimationRotations"},{"bufferView":7,"byteOffset":16080,"componentType":5126,"count":364,"type":"VEC3","name":"accessorAnimationScales"}],"bufferViews":[{"buffer":0,"byteLength":134156,"name":"bufferViewScalar"},{"buffer":0,"byteOffset":134156,"byteLength":581856,"byteStride":12,"name":"bufferViewFloatVec3"},{"buffer":0,"byteOffset":716012,"byteLength":775808,"byteStride":16,"name":"bufferViewFloatVec4"},{"buffer":0,"byteOffset":1491820,"byteLength":193952,"byteStride":8,"name":"bufferViewFloatVec2"},{"buffer":0,"byteOffset":1685772,"byteLength":193952,"byteStride":8,"name":"bufferViewUnsignedShortVec4"},{"buffer":0,"byteOffset":1879724,"byteLength":448,"name":"bufferViewFloatMat4"},{"buffer":0,"byteOffset":1880172,"byteLength":3408,"name":"bufferViewAnimationFloatScalar"},{"buffer":0,"byteOffset":1883580,"byteLength":20448,"name":"bufferViewAnimationFloatVec3"},{"buffer":0,"byteOffset":1904028,"byteLength":13632,"name":"bufferViewAnimationFloatVec4"}],"buffers":[{"uri":"data:application/octet-stream;base64,","byteLength":1917660}],"materials":[{"pbrMetallicRoughness":{"baseColorTexture":{"index":2},"metallicRoughnessTexture":{"index":1}},"normalTexture":{"index":0},"occlusionTexture":{"index":1},"name":"jixie"}],"textures":[{"sampler":0,"source":0,"name":"zhong_Object413SG_Normal_OpenGL.jpg"},{"sampler":0,"source":1,"name":"file60file59file58.jpg"},{"sampler":0,"source":2,"name":"zhong_Object413SG_Base_Color.jpg"}],"images":[{"uri":"data:image/jpeg;base64,"},{"uri":"data:image/jpeg;base64,"},{"uri":"data:image/jpeg;base64,"}],"samplers":[{"magFilter":9729,"minFilter":9987}],"animations":[{"channels":[{"sampler":0,"target":{"node":1,"path":"translation"}},{"sampler":1,"target":{"node":1,"path":"rotation"}},{"sampler":2,"target":{"node":1,"path":"scale"}},{"sampler":3,"target":{"node":3,"path":"translation"}},{"sampler":4,"target":{"node":3,"path":"rotation"}},{"sampler":5,"target":{"node":3,"path":"scale"}},{"sampler":6,"target":{"node":6,"path":"translation"}},{"sampler":7,"target":{"node":6,"path":"rotation"}},{"sampler":8,"target":{"node":6,"path":"scale"}}],"samplers":[{"input":8,"output":9},{"input":8,"output":10},{"input":8,"output":11},{"input":12,"output":13},{"input":12,"output":14},{"input":12,"output":15},{"input":16,"output":17},{"input":16,"output":18},{"input":16,"output":19}],"name":"Animation"}],"skins":[{"inverseBindMatrices":7,"skeleton":1,"joints":[1,2,3,4,5,6,7],"name":"skeleton #0"}]}